<svg width="54" height="48" viewBox="0 0 54 48" fill="none" xmlns="http://www.w3.org/2000/svg">
<path d="M5.52734 47.9998V26.6782C5.52734 25.7278 6.32385 24.9502 7.29736 24.9502C8.27087 24.9502 9.06738 25.7278 9.06738 26.6782V44.5438H44.0449V26.6782C44.0449 25.7278 44.8414 24.9502 45.815 24.9502C46.7885 24.9502 47.585 25.7278 47.585 26.6782V47.9998H5.52734Z" fill="#666666"/>
<path d="M51.3515 21.7152C50.9778 21.7152 50.6042 21.5904 50.2993 21.3696L26.5516 4.2624L2.79397 21.3792C2.5088 21.5904 2.13513 21.7152 1.76146 21.7152C0.984617 21.7152 0.325772 21.2544 0.0897692 20.5344C-0.146234 19.824 0.0897761 19.0752 0.719117 18.624L26.5516 0L33.9168 5.3088C34.0152 4.4544 34.7625 3.7824 35.6573 3.7824H41.1542C42.1179 3.7824 42.9046 4.5504 42.9046 5.4912V11.7792L52.3742 18.6144C52.9937 19.056 53.2395 19.8048 53.0035 20.5152C52.7675 21.2352 52.1087 21.696 51.3417 21.696L51.3515 21.7152Z" fill="#666666"/>
<path d="M41.5571 23.3859C41.1736 23.3859 40.7901 23.2611 40.4755 23.0307L26.5513 12.5859L12.6271 23.0307C12.3223 23.2611 11.9388 23.3859 11.5455 23.3859C10.7785 23.3859 10.1196 22.9251 9.87378 22.2147C9.62794 21.5043 9.86395 20.7459 10.4736 20.2851L26.5611 8.22754L42.6388 20.2851C43.2485 20.7459 43.4845 21.4947 43.2387 22.2147C42.9928 22.9251 42.334 23.3859 41.567 23.3859H41.5571Z" fill="#009865"/>
</svg>
