<svg width="15" height="17" viewBox="0 0 15 17" fill="none" xmlns="http://www.w3.org/2000/svg">
<path d="M12.187 0.865234H2.47033C1.32237 0.865234 0.388184 1.79942 0.388184 2.94738V14.0521C0.388184 15.2001 1.32237 16.1343 2.47033 16.1343H12.187C13.3349 16.1343 14.2691 15.2001 14.2691 14.0521V2.94738C14.2691 1.79942 13.3349 0.865234 12.187 0.865234ZM4.55247 13.3581C4.55247 13.7412 4.24154 14.0521 3.85842 14.0521H3.16437C2.78126 14.0521 2.47033 13.7412 2.47033 13.3581V12.664C2.47033 12.2809 2.78126 11.97 3.16437 11.97H3.85842C4.24154 11.97 4.55247 12.2809 4.55247 12.664V13.3581ZM4.55247 9.88785C4.55247 10.271 4.24154 10.5819 3.85842 10.5819H3.16437C2.78126 10.5819 2.47033 10.271 2.47033 9.88785V9.19381C2.47033 8.81069 2.78126 8.49976 3.16437 8.49976H3.85842C4.24154 8.49976 4.55247 8.81069 4.55247 9.19381V9.88785ZM8.02271 13.3581C8.02271 13.7412 7.71177 14.0521 7.32866 14.0521H6.63461C6.2515 14.0521 5.94056 13.7412 5.94056 13.3581V12.664C5.94056 12.2809 6.2515 11.97 6.63461 11.97H7.32866C7.71177 11.97 8.02271 12.2809 8.02271 12.664V13.3581ZM8.02271 9.88785C8.02271 10.271 7.71177 10.5819 7.32866 10.5819H6.63461C6.2515 10.5819 5.94056 10.271 5.94056 9.88785V9.19381C5.94056 8.81069 6.2515 8.49976 6.63461 8.49976H7.32866C7.71177 8.49976 8.02271 8.81069 8.02271 9.19381V9.88785ZM12.187 13.3581C12.187 13.7412 11.8761 14.0521 11.4929 14.0521H10.7989C10.4158 14.0521 10.1048 13.7412 10.1048 13.3581V9.19381C10.1048 8.81069 10.4158 8.49976 10.7989 8.49976H11.4929C11.8761 8.49976 12.187 8.81069 12.187 9.19381V13.3581ZM12.187 5.72357C12.187 6.10668 11.8761 6.41762 11.4929 6.41762H3.16437C2.78126 6.41762 2.47033 6.10668 2.47033 5.72357V3.64143C2.47033 3.25831 2.78126 2.94738 3.16437 2.94738H11.4929C11.8761 2.94738 12.187 3.25831 12.187 3.64143V5.72357Z" fill="white"/>
</svg>
