<svg width="17" height="22" viewBox="0 0 17 22" fill="none" xmlns="http://www.w3.org/2000/svg">
<path d="M13.9183 0.624023H2.78027C1.4644 0.624023 0.393555 1.8864 0.393555 3.43764V18.4436C0.393555 19.9948 1.4644 21.2572 2.78027 21.2572H13.9183C15.2342 21.2572 16.305 19.9948 16.305 18.4436V3.43764C16.305 1.8864 15.2342 0.624023 13.9183 0.624023ZM5.16699 17.5057C5.16699 18.0234 4.81058 18.4436 4.37142 18.4436H3.57585C3.13669 18.4436 2.78027 18.0234 2.78027 17.5057V16.5678C2.78027 16.0501 3.13669 15.63 3.57585 15.63H4.37142C4.81058 15.63 5.16699 16.0501 5.16699 16.5678V17.5057ZM5.16699 12.8163C5.16699 13.334 4.81058 13.7542 4.37142 13.7542H3.57585C3.13669 13.7542 2.78027 13.334 2.78027 12.8163V11.8785C2.78027 11.3608 3.13669 10.9406 3.57585 10.9406H4.37142C4.81058 10.9406 5.16699 11.3608 5.16699 11.8785V12.8163ZM9.14486 17.5057C9.14486 18.0234 8.78844 18.4436 8.34929 18.4436H7.55371C7.11456 18.4436 6.75814 18.0234 6.75814 17.5057V16.5678C6.75814 16.0501 7.11456 15.63 7.55371 15.63H8.34929C8.78844 15.63 9.14486 16.0501 9.14486 16.5678V17.5057ZM9.14486 12.8163C9.14486 13.334 8.78844 13.7542 8.34929 13.7542H7.55371C7.11456 13.7542 6.75814 13.334 6.75814 12.8163V11.8785C6.75814 11.3608 7.11456 10.9406 7.55371 10.9406H8.34929C8.78844 10.9406 9.14486 11.3608 9.14486 11.8785V12.8163ZM13.9183 17.5057C13.9183 18.0234 13.5619 18.4436 13.1227 18.4436H12.3272C11.888 18.4436 11.5316 18.0234 11.5316 17.5057V11.8785C11.5316 11.3608 11.888 10.9406 12.3272 10.9406H13.1227C13.5619 10.9406 13.9183 11.3608 13.9183 11.8785V17.5057ZM13.9183 7.18912C13.9183 7.70682 13.5619 8.12699 13.1227 8.12699H3.57585C3.13669 8.12699 2.78027 7.70682 2.78027 7.18912V4.37551C2.78027 3.8578 3.13669 3.43764 3.57585 3.43764H13.1227C13.5619 3.43764 13.9183 3.8578 13.9183 4.37551V7.18912Z" fill="black"/>
</svg>
