<svg width="54" height="48" viewBox="0 0 54 48" fill="none" xmlns="http://www.w3.org/2000/svg">
<path d="M5.52734 48.0007V27.6391C5.52734 26.6887 6.32386 25.9111 7.29737 25.9111C8.27088 25.9111 9.06739 26.6887 9.06739 27.6391V44.5447H44.0449V27.6391C44.0449 26.6887 44.8415 25.9111 45.815 25.9111C46.7885 25.9111 47.585 26.6887 47.585 27.6391V48.0007H5.52734Z" fill="#666666" fill-opacity="0.35"/>
<path d="M51.3515 21.7152C50.9778 21.7152 50.6042 21.5904 50.2993 21.3696L26.5516 4.2624L2.79397 21.3792C2.5088 21.5904 2.13512 21.7152 1.76145 21.7152C0.984611 21.7152 0.325773 21.2544 0.0897704 20.5344C-0.146232 19.824 0.0897698 19.0752 0.71911 18.624L26.5516 0L33.9168 5.3088C34.0152 4.4544 34.7625 3.7824 35.6573 3.7824H41.1542C42.1179 3.7824 42.9046 4.5504 42.9046 5.4912V11.7792L52.3742 18.6144C52.9937 19.056 53.2395 19.8048 53.0035 20.5152C52.7675 21.2352 52.1087 21.696 51.3417 21.696L51.3515 21.7152Z" fill="#666666" fill-opacity="0.35"/>
<path d="M7.77979 24.3466C6.80628 24.3466 6.00977 23.569 6.00977 22.6186C6.00977 21.6682 6.80628 20.8906 7.77979 20.8906H45.314C46.2876 20.8906 47.0841 21.6682 47.0841 22.6186C47.0841 23.569 46.2876 24.3466 45.314 24.3466H7.77979Z" fill="#009865" fill-opacity="0.35"/>
</svg>
