<svg width="54" height="48" viewBox="0 0 54 48" fill="none" xmlns="http://www.w3.org/2000/svg">
<path d="M51.3515 21.7152C50.9778 21.7152 50.6042 21.5904 50.2993 21.3696L26.5516 4.2624L2.79397 21.3792C2.5088 21.5904 2.13514 21.7152 1.76147 21.7152C0.984623 21.7152 0.325771 21.2544 0.0897679 20.5344C-0.146235 19.824 0.0897823 19.0752 0.719123 18.624L26.5516 0L33.9168 5.3088C34.0151 4.4544 34.7625 3.7824 35.6573 3.7824H41.1542C42.1179 3.7824 42.9046 4.5504 42.9046 5.4912V11.7792L52.3742 18.6144C52.9937 19.056 53.2395 19.8048 53.0035 20.5152C52.7675 21.2352 52.1087 21.696 51.3417 21.696L51.3515 21.7152Z" fill="#666666" fill-opacity="0.35"/>
<path d="M31.9796 16.3487V23.1167C31.9796 24.1727 31.1045 25.0271 30.0228 25.0271H23.0804C21.9987 25.0271 21.1235 24.1727 21.1235 23.1167V16.3487C21.1235 15.2927 21.9987 14.4287 23.0804 14.4287H30.0228C31.1045 14.4287 31.9796 15.2927 31.9796 16.3487Z" fill="#666666" fill-opacity="0.35"/>
<path d="M7.29738 47.9993C6.32387 47.9993 5.52734 47.2217 5.52734 46.2713V26.1977C5.52734 25.2473 6.32387 24.4697 7.29738 24.4697C8.27089 24.4697 9.06739 25.2473 9.06739 26.1977V46.2713C9.06739 47.2217 8.27089 47.9993 7.29738 47.9993Z" fill="#666666" fill-opacity="0.35"/>
<path d="M45.8052 47.9993C44.8317 47.9993 44.0352 47.2217 44.0352 46.2713V26.1977C44.0352 25.2473 44.8317 24.4697 45.8052 24.4697C46.7787 24.4697 47.5752 25.2473 47.5752 26.1977V46.2713C47.5752 47.2217 46.7787 47.9993 45.8052 47.9993Z" fill="#666666" fill-opacity="0.35"/>
<path d="M11.9782 47.9999C11.0637 47.9999 10.3262 47.2223 10.3262 46.2719C10.3262 45.3215 11.0637 44.5439 11.9782 44.5439H41.1147C42.0292 44.5439 42.7667 45.3215 42.7667 46.2719C42.7667 47.2223 42.0292 47.9999 41.1147 47.9999H11.9782Z" fill="#009865" fill-opacity="0.35"/>
</svg>
