<svg width="18" height="18" viewBox="0 0 18 18" fill="none" xmlns="http://www.w3.org/2000/svg">
<path d="M2.81465 13.0599L4.60722 14.8524C4.7465 14.9917 4.91186 15.1022 5.09385 15.1776C5.27584 15.253 5.47089 15.2918 5.66788 15.2918C5.86486 15.2918 6.05992 15.253 6.2419 15.1776C6.42389 15.1022 6.58925 14.9917 6.72854 14.8524L7.74986 13.8311C8.03116 13.5498 8.1892 13.1683 8.1892 12.7705C8.1892 12.3726 8.03116 11.9911 7.74986 11.7098L7.07651 11.0364C8.1183 9.29821 9.57103 7.84243 11.3071 6.79701L11.3293 6.7836L12.0027 7.45695C12.284 7.73825 12.6655 7.89629 13.0634 7.89629C13.4612 7.89629 13.8427 7.73825 14.124 7.45695L15.1251 6.45583C15.4065 6.17453 15.5645 5.793 15.5645 5.39518C15.5645 4.99735 15.4065 4.61582 15.1251 4.33452L13.3326 2.54194C13.2101 2.41948 13.0491 2.34318 12.8767 2.32598C12.7044 2.30877 12.5315 2.35173 12.3872 2.44756C8.5536 4.99433 5.26704 8.28089 2.72026 12.1145C2.62443 12.2587 2.58148 12.4317 2.59868 12.604C2.61589 12.7763 2.69219 12.9374 2.81465 13.0599Z" fill="white"/>
</svg>
