<svg width="51" height="66" viewBox="0 0 51 66" fill="none" xmlns="http://www.w3.org/2000/svg">
<g clip-path="url(#clip0_922_12)">
<path d="M36.1412 25.7566C35.7854 25.5631 27.3242 21.0162 18.5297 26.7644C16.3713 28.1752 14.883 30.3606 14.3501 32.9046C13.9524 34.8031 14.1252 36.722 14.8283 38.4745L13.0372 39.6452C12.1417 40.2305 11.8912 41.4266 12.4765 42.3221C12.7767 42.7814 13.2155 43.0516 13.7091 43.155C14.2027 43.2584 14.7171 43.168 15.1724 42.8868L16.9634 41.7162C18.2865 43.0635 19.9748 43.9919 21.8733 44.3895C24.4173 44.9224 26.9972 44.4323 29.1746 43.0255C37.9691 37.2773 37.2001 27.7026 37.1658 27.299C37.1032 26.6517 36.728 26.0777 36.1752 25.7835L36.1412 25.7566ZM27.0245 39.7609C24.9809 41.0967 22.2703 40.8856 20.3428 39.4909L26.5196 35.4537C27.4151 34.8684 27.6657 33.6723 27.0803 32.7768C26.495 31.8813 25.2989 31.6307 24.4034 32.2161L18.2037 36.2683C18.002 35.4334 17.9642 34.5732 18.1471 33.6999C18.4653 32.1811 19.3521 30.8805 20.6609 30.025C24.6104 27.4436 28.4596 27.5166 31.0606 28.0614C31.9719 28.2523 32.7304 28.5103 33.2801 28.7245C33.1835 30.9834 32.3287 36.294 27.0245 39.7609Z" fill="#FF8300"/>
<path d="M44.2802 13.0136L39.7238 12.0591L40.0976 10.2745C40.5509 8.11021 39.1702 5.99771 37.0058 5.54435L25.8615 3.20997C23.6972 2.75661 21.5808 4.15637 21.1314 6.30169L20.7576 8.0863L16.2011 7.13187C13.4862 6.56318 10.8037 8.30018 10.231 11.034L1.55759 52.4407C0.988906 55.1556 2.7259 57.8382 5.45977 58.4108L33.5768 64.3005C36.2917 64.8692 38.9783 63.1132 39.5469 60.3983L48.2203 18.9916C48.789 16.2767 47.033 13.5902 44.3182 13.0215L44.2802 13.0136ZM35.7159 59.576C35.5847 60.2025 34.9647 60.6077 34.3382 60.4765L6.24012 54.5908C5.61361 54.4596 5.20838 53.8396 5.33962 53.2131L14.009 11.8254C14.1403 11.1989 14.7603 10.7937 15.3868 10.9249L21.8417 12.277C22.8859 12.4958 23.9192 11.8204 24.1379 10.7762L25.0472 7.00303L36.3005 9.47916L35.529 13.1623C35.3103 14.2065 35.9857 15.2398 37.0299 15.4585L43.4848 16.8106C44.1113 16.9418 44.5166 17.5618 44.3853 18.1883L35.7119 59.595L35.7159 59.576Z" fill="#FF8300"/>
</g>
<defs>
<clipPath id="clip0_922_12">
<rect width="38.7944" height="58.1917" fill="white" transform="translate(12.439 0.398438) rotate(11.8306)"/>
</clipPath>
</defs>
</svg>
