<svg width="42" height="54" viewBox="0 0 42 54" fill="none" xmlns="http://www.w3.org/2000/svg">
<path d="M23.8899 26.8346C23.8796 26.9078 23.8693 26.9601 23.8693 27.0019C23.8693 29.375 25.7829 30.2741 28.4785 31.2777C31.956 32.5741 35.8965 34.0481 35.8965 40.9376V50.702H6.40977V40.9376C6.40977 34.0481 10.3502 32.5741 13.8175 31.2777C16.5233 30.2741 18.437 29.375 18.437 27.0019C18.437 26.9601 18.4267 26.9078 18.4164 26.866L18.3958 26.7405C18.2518 24.5451 16.3999 23.6983 13.8072 22.726C10.3194 21.4192 6.37891 19.9452 6.37891 13.0662V3.30176H35.9273V13.0662C35.9273 19.9452 31.9869 21.4192 28.5094 22.726C25.9064 23.6983 24.0442 24.5451 23.9104 26.7301L23.8899 26.8346Z" fill="white"/>
<path d="M5.72032 53.1371C5.18532 53.1371 4.66061 52.8862 4.32109 52.4053C3.7758 51.6212 3.9507 50.5339 4.72234 49.9799C7.64426 47.8576 17.4594 40.9473 21.153 40.9473C24.8465 40.9473 34.6617 47.8681 37.5837 49.9799C38.3553 50.5339 38.5302 51.6317 37.9849 52.4053C37.4293 53.1894 36.3593 53.3671 35.5877 52.813C30.0319 48.7776 22.9329 44.4286 21.153 44.4286C19.3731 44.4286 12.2741 48.7881 6.7183 52.813C6.41993 53.0325 6.07012 53.1371 5.72032 53.1371Z" fill="#FF8300"/>
<path d="M21.1527 18.2928C15.6895 18.2928 5.40104 13.4001 4.96892 13.191C4.11498 12.7833 3.7446 11.7483 4.14585 10.8701C4.5471 10.0024 5.56565 9.62606 6.42988 10.0338C9.20776 11.3615 17.2533 14.801 21.1527 14.801C25.0417 14.801 33.0564 11.1629 35.8137 9.76197C36.6676 9.33334 37.6862 9.67833 38.1183 10.546C38.5401 11.4033 38.2006 12.4487 37.3467 12.8878C36.9146 13.0969 26.6364 18.2928 21.1527 18.2928Z" fill="#FF8300"/>
<path d="M21.1532 37.4544C20.2067 37.4544 19.4351 36.6704 19.4351 35.7086V33.9627C19.4351 33.0009 20.2067 32.2168 21.1532 32.2168C22.0998 32.2168 22.8714 33.0009 22.8714 33.9627V35.7086C22.8714 36.6704 22.0998 37.4544 21.1532 37.4544Z" fill="#FF8300"/>
<path d="M41.73 2.61112C41.73 3.57292 40.9583 4.34655 40.0118 4.34655H2.29434C1.34781 4.34655 0.576172 3.57292 0.576172 2.61112C0.576172 1.64931 1.34781 0.865234 2.29434 0.865234H40.0118C40.9583 0.865234 41.73 1.64931 41.73 2.61112Z" fill="#FF8300"/>
<path d="M41.73 51.3917C41.73 52.3535 40.9583 53.1376 40.0118 53.1376H2.29434C1.34781 53.1376 0.576172 52.3535 0.576172 51.3917C0.576172 50.4299 1.34781 49.6562 2.29434 49.6562H40.0118C40.9583 49.6562 41.73 50.4299 41.73 51.3917Z" fill="#FF8300"/>
<path d="M38.3245 2.61112V13.0655C38.3245 21.6486 32.9127 23.6767 29.3323 25.0149C27.0174 25.8826 26.2973 26.2694 26.2973 27.0012C26.2973 27.0639 26.2973 27.1162 26.287 27.1685C26.4001 27.8062 27.1821 28.193 29.3118 28.9876C32.8922 30.3257 38.3039 32.3539 38.3039 40.9369V51.3913C38.3039 52.3531 37.5322 53.1372 36.5857 53.1372C35.6392 53.1372 34.8675 52.3531 34.8675 51.3913V40.9369C34.8675 34.7793 31.5958 33.5561 28.1286 32.2598C25.7725 31.3816 22.8403 30.2839 22.8403 27.0012C22.8403 26.8862 22.8609 26.7712 22.8815 26.6562C23.077 23.6349 25.8754 22.5895 28.1492 21.7427C31.6164 20.4463 34.8984 19.2232 34.8984 13.0655V2.61112C34.8984 1.64931 35.6597 0.865234 36.6063 0.865234C37.5528 0.865234 38.3245 1.64931 38.3245 2.61112Z" fill="#FF8300"/>
<path d="M19.4249 26.6667C19.2294 23.6454 16.431 22.5895 14.1572 21.7427C10.69 20.4463 7.40799 19.2232 7.40799 13.0655V2.61112C7.40799 1.64931 6.64664 0.865234 5.7001 0.865234C4.75357 0.865234 3.98193 1.64931 3.98193 2.61112V13.0655C3.98193 21.6486 9.39366 23.6767 12.974 25.0149C15.2889 25.8826 16.0091 26.2694 16.0091 27.0012C16.0091 27.0639 16.0091 27.1162 16.0194 27.1685C15.9063 27.7958 15.1243 28.193 12.9946 28.9876C9.41424 30.3257 4.00251 32.3539 4.00251 40.9369V51.3913C4.00251 52.3531 4.77414 53.1372 5.72068 53.1372C6.66722 53.1372 7.43885 52.3531 7.43885 51.3913V40.9369C7.43885 34.7793 10.7106 33.5561 14.1778 32.2598C16.5338 31.3816 19.4661 30.2839 19.4661 27.0012C19.4661 26.8862 19.4455 26.7712 19.4249 26.6667Z" fill="#FF8300"/>
</svg>
