<svg width="55" height="63" viewBox="0 0 55 63" fill="none" xmlns="http://www.w3.org/2000/svg">
<path d="M52.8291 25.9778C54.1023 23.5143 53.5752 20.5904 51.5167 18.7021L48.5934 16.0198C47.9305 15.4123 47.5428 14.7546 47.3361 13.89L46.4212 10.074C45.7779 7.38685 43.4515 5.47824 40.6322 5.32517L36.6302 5.10753C35.7227 5.0585 34.9937 4.79899 34.266 4.26683L31.0565 1.91815C28.7962 0.264263 25.7592 0.264263 23.5001 1.91815L20.2907 4.26683C19.563 4.79899 18.834 5.0585 17.9264 5.10753L13.9244 5.32517C11.1064 5.47824 8.78003 7.38685 8.13545 10.074L7.22179 13.89C7.01508 14.7546 6.62613 15.4123 5.96443 16.0198L3.0412 18.7021C0.98393 20.5904 0.45677 23.5143 1.73003 25.9778L3.53778 29.4757C3.94752 30.2686 4.08206 31.016 3.97443 31.8985L3.49864 35.7899C3.16351 38.5308 4.68261 41.1019 7.27683 42.1878L10.9621 43.7304C11.4024 43.9146 11.773 44.1382 12.1008 44.4157L6.4708 56.2404C6.31669 56.5633 6.35949 56.9436 6.58088 57.2258C6.80226 57.508 7.16675 57.6468 7.52634 57.5858L13.1086 56.6315L15.956 61.4221C16.1321 61.7175 16.4538 61.8981 16.8024 61.8981C16.8171 61.8981 16.8318 61.8981 16.8464 61.8981C17.2109 61.8813 17.535 61.6697 17.6892 61.3468L22.6207 50.9894L26.0222 49.9848C26.8918 49.7277 27.6685 49.7277 28.5381 49.9848L32.1047 51.0384L37.0131 61.3468C37.1672 61.6697 37.4913 61.8825 37.8558 61.8981C37.8705 61.8981 37.8851 61.8981 37.8998 61.8981C38.2472 61.8981 38.5701 61.7175 38.7462 61.4221L41.5936 56.6315L47.1759 57.5858C47.5342 57.6468 47.8987 57.508 48.1213 57.2258C48.3427 56.9436 48.3855 56.5633 48.2314 56.2404L42.5611 44.332C42.8632 44.0928 43.2032 43.8955 43.5971 43.7304L47.2823 42.1878C49.8777 41.1007 51.3956 38.5296 51.0605 35.7899L50.5847 31.8985C50.477 31.016 50.6116 30.2698 51.0213 29.4757L52.8303 25.9778H52.8291ZM16.7058 58.8773L14.4577 55.0948C14.2522 54.748 13.8461 54.5638 13.4437 54.6332L9.03688 55.3866L13.4413 46.1365L15.0839 48.5928C16.2655 50.3591 18.2139 51.3673 20.2736 51.3876L16.707 58.8785L16.7058 58.8773ZM41.2585 54.6332C40.8548 54.5638 40.45 54.748 40.2445 55.0948L37.9964 58.8773L34.4286 51.384C36.4357 51.3206 38.3218 50.3173 39.4764 48.5916L41.2022 46.0122L45.6665 55.3866L41.2597 54.6332H41.2585ZM49.2747 28.6123C48.6962 29.7316 48.4895 30.8797 48.6412 32.1246L49.1169 36.0159C49.3518 37.9353 48.3293 39.6669 46.5117 40.4287L42.8265 41.9713C41.6474 42.4652 40.7337 43.215 40.0317 44.2638L37.8374 47.5441C36.755 49.1621 34.8335 49.8461 32.9401 49.2864L29.1032 48.1528C27.8764 47.7904 26.6827 47.7904 25.4547 48.1528L21.6178 49.2864C19.7256 49.8461 17.8029 49.1621 16.7205 47.5441L14.5262 44.2638C13.8241 43.215 12.9105 42.464 11.7314 41.9713L8.04616 40.4287C6.22862 39.6681 5.2061 37.9353 5.44094 36.0159L5.91673 32.1246C6.06962 30.8797 5.86169 29.7304 5.28316 28.6123L3.4754 25.1144C2.58376 23.3887 2.93846 21.4192 4.3805 20.0965L7.30373 17.4142C8.23819 16.5556 8.83507 15.5463 9.12739 14.3253L10.0411 10.5093C10.4924 8.62696 12.0592 7.34141 14.0333 7.23378L18.0353 7.01613C19.3159 6.94677 20.4375 6.54735 21.4637 5.79634L24.6731 3.44766C25.4645 2.86886 26.372 2.57946 27.2783 2.57946C28.1847 2.57946 29.0922 2.86886 29.8836 3.44766L33.093 5.79634C34.1192 6.54735 35.2408 6.94677 36.5214 7.01613L40.5234 7.23378C42.4975 7.34141 44.0643 8.62696 44.5156 10.5093L45.4305 14.3253C45.7228 15.5463 46.3197 16.5568 47.2541 17.4142L50.1774 20.0965C51.6194 21.4192 51.9741 23.3887 51.0825 25.1144L49.2735 28.6123H49.2747ZM27.2796 9.83479C18.1454 9.83479 10.715 17.0997 10.715 26.0304C10.715 34.9612 18.1454 42.2261 27.2796 42.2261C36.4137 42.2261 43.8441 34.9612 43.8441 26.0304C43.8441 17.0997 36.4137 9.83479 27.2796 9.83479ZM27.2796 40.3127C19.2254 40.3127 12.672 33.9052 12.672 26.0304C12.672 18.1556 19.2242 11.7482 27.2796 11.7482C35.3349 11.7482 41.8871 18.1556 41.8871 26.0304C41.8871 33.9052 35.3337 40.3127 27.2796 40.3127ZM34.4347 18.268C33.5565 18.2716 32.7334 18.6089 32.1157 19.2176L25.2296 26.0185L22.4422 23.2931C21.1591 22.0386 19.0713 22.0386 17.7894 23.2931C16.5064 24.5475 16.5064 26.5877 17.7894 27.8422L22.9118 32.8504C23.5527 33.4771 24.3955 33.7916 25.2382 33.7916C26.0809 33.7916 26.9236 33.4783 27.5645 32.8504C29.5056 30.9526 35.6383 24.8716 36.7807 23.7439C38.0551 22.4871 38.0478 20.4493 36.766 19.2032C36.1422 18.5969 35.3129 18.2633 34.4347 18.268ZM35.39 22.3974C34.2464 23.5263 28.1162 29.6049 26.18 31.4979C25.6602 32.0062 24.815 32.0062 24.2952 31.4979L19.1728 26.4896C18.653 25.9814 18.653 25.1538 19.1728 24.6456C19.4321 24.3909 19.7746 24.2641 20.1158 24.2641C20.4571 24.2641 20.7983 24.3909 21.0588 24.6456L24.541 28.0502C24.7245 28.2296 24.974 28.3301 25.2333 28.3301H25.2357C25.4963 28.3301 25.7458 28.2272 25.928 28.0466L33.5064 20.5629C33.7547 20.3178 34.0874 20.1814 34.4421 20.1802H34.447C34.8017 20.1802 35.1344 20.3142 35.3851 20.5581C35.9037 21.0616 35.9061 21.8867 35.39 22.3962V22.3974Z" fill="#FF8300" stroke="#FF8300"/>
</svg>
