<svg width="48" height="53" viewBox="0 0 48 53" fill="none" xmlns="http://www.w3.org/2000/svg">
<path d="M24.2851 52.9491C11.3112 52.9491 0.762695 42.4006 0.762695 29.4267C0.762695 16.4528 11.3112 5.9043 24.2851 5.9043C37.259 5.9043 47.8075 16.4528 47.8075 29.4267C47.8075 42.4006 37.259 52.9491 24.2851 52.9491ZM24.2851 9.38561C13.2348 9.38561 4.24401 18.3764 4.24401 29.4267C4.24401 40.477 13.2348 49.4678 24.2851 49.4678C35.3354 49.4678 44.3262 40.477 44.3262 29.4267C44.3262 18.3764 35.3354 9.38561 24.2851 9.38561Z" fill="#FF8300"/>
<path d="M24.2853 34.6536C21.3999 34.6536 19.0581 32.3118 19.0581 29.4264C19.0581 26.541 21.3999 24.1992 24.2853 24.1992C27.1707 24.1992 29.5125 26.541 29.5125 29.4264C29.5125 32.3118 27.1707 34.6536 24.2853 34.6536ZM24.2853 27.6805C23.3235 27.6805 22.5394 28.4646 22.5394 29.4264C22.5394 30.3882 23.3235 31.1723 24.2853 31.1723C25.2471 31.1723 26.0312 30.3882 26.0312 29.4264C26.0312 28.4646 25.2471 27.6805 24.2853 27.6805Z" fill="#FF8300"/>
<path d="M27.7666 9.38722H20.7935C19.8422 9.38722 19.0581 8.6136 19.0581 7.65179V2.42459C19.0581 1.46279 19.8422 0.678711 20.804 0.678711H27.7771C28.7284 0.678711 29.5125 1.46279 29.5125 2.42459V7.65179C29.5125 8.6136 28.7284 9.38722 27.7666 9.38722ZM22.5394 5.90591H26.0207V4.16002H22.5394V5.90591Z" fill="#FF8300"/>
<path d="M27.7666 9.38722H20.7935C19.8422 9.38722 19.0581 8.6136 19.0581 7.65179V2.42459C19.0581 1.46279 19.8422 0.678711 20.804 0.678711H27.7771C28.7284 0.678711 29.5125 1.46279 29.5125 2.42459V7.65179C29.5125 8.6136 28.7284 9.38722 27.7666 9.38722ZM22.5394 5.90591H26.0207V4.16002H22.5394V5.90591Z" fill="#FF8300"/>
<path d="M7.03561 17.9802C6.58607 17.9802 6.14698 17.813 5.80199 17.468L2.10113 13.7671C1.77705 13.443 1.58887 12.9935 1.58887 12.5335C1.58887 12.0735 1.77705 11.624 2.10113 11.2999L7.03561 6.37586C7.71514 5.69633 8.82331 5.69633 9.50284 6.37586L13.2037 10.0767C13.8832 10.7563 13.8832 11.8644 13.2037 12.544C12.5242 13.2235 11.416 13.2235 10.7365 12.544L8.26923 10.0767L5.80199 12.544L8.26923 15.0112C8.94876 15.6907 8.94876 16.7989 8.26923 17.4784C7.92423 17.813 7.48515 17.9802 7.03561 17.9802Z" fill="#FF8300"/>
<path d="M41.5352 17.9809C41.0856 17.9809 40.6465 17.8137 40.3015 17.4687C39.622 16.7891 39.622 15.681 40.3015 15.0014L42.7688 12.5342L40.3015 10.067L37.8343 12.5342C37.1548 13.2137 36.0466 13.2137 35.3671 12.5342C34.6875 11.8547 34.6875 10.7465 35.3671 10.067L39.0679 6.3661C39.7475 5.68656 40.8556 5.68656 41.5352 6.3661L46.4592 11.2901C46.7833 11.6142 46.9715 12.0637 46.9715 12.5237C46.9715 12.9837 46.7833 13.4333 46.4592 13.7574L42.7583 17.4582C42.4238 17.8137 41.9847 17.9809 41.5352 17.9809Z" fill="#FF8300"/>
<path d="M31.2582 4.16002H17.312C16.3502 4.16002 15.5662 3.37594 15.5662 2.41414C15.5662 1.45234 16.3502 0.678711 17.312 0.678711H31.2478C32.2096 0.678711 32.9936 1.46279 32.9936 2.42459C32.9936 3.3864 32.22 4.16002 31.2582 4.16002Z" fill="#FF8300"/>
<path d="M31.0596 36.2019C30.3801 36.8815 29.2719 36.8815 28.5924 36.2019L26.1251 33.7347C25.4456 33.0552 25.4456 31.947 26.1251 31.2675C26.8047 30.5879 27.9128 30.5879 28.5924 31.2675L31.0596 33.7347C31.7391 34.4247 31.7391 35.5224 31.0596 36.2019Z" fill="#FF8300"/>
<path d="M24.2852 27.6811C23.3234 27.6811 22.5393 26.897 22.5393 25.9352V14.6131C22.5393 13.6513 23.3234 12.8672 24.2852 12.8672C25.247 12.8672 26.0311 13.6513 26.0311 14.6131V25.9352C26.0311 26.9074 25.247 27.6811 24.2852 27.6811Z" fill="#FF8300"/>
</svg>
