<svg width="17" height="17" viewBox="0 0 17 17" fill="none" xmlns="http://www.w3.org/2000/svg">
<path fill-rule="evenodd" clip-rule="evenodd" d="M8.15762 9.28129C8.29051 9.4142 8.47075 9.4889 8.6587 9.48897C8.84665 9.48903 9.02693 9.41446 9.15991 9.28164L14.7816 3.68777C14.5904 3.59303 14.3801 3.54317 14.1667 3.54199H2.83336C2.7089 3.54371 2.58522 3.56198 2.46558 3.59634L8.15762 9.28129Z" fill="white"/>
<path fill-rule="evenodd" clip-rule="evenodd" d="M10.1602 10.284C9.76135 10.6816 9.22105 10.9047 8.65785 10.9044C8.09465 10.9042 7.55456 10.6805 7.15605 10.2826L1.46755 4.60156C1.43539 4.71771 1.41831 4.83751 1.41675 4.95802V12.0414C1.41675 12.4171 1.566 12.7774 1.83168 13.0431C2.09736 13.3088 2.45769 13.458 2.83341 13.458H14.1667C14.5425 13.458 14.9028 13.3088 15.1685 13.0431C15.4342 12.7774 15.5834 12.4171 15.5834 12.0414V4.95802C15.5834 4.9361 15.578 4.91574 15.577 4.89408L10.1602 10.284Z" fill="white"/>
</svg>
