<svg width="54" height="48" viewBox="0 0 54 48" fill="none" xmlns="http://www.w3.org/2000/svg">
<path d="M5.51758 47.9998V26.6782C5.51758 25.7278 6.31409 24.9502 7.2876 24.9502C8.26111 24.9502 9.05762 25.7278 9.05762 26.6782V44.5438H44.0352V26.6782C44.0352 25.7278 44.8317 24.9502 45.8052 24.9502C46.7787 24.9502 47.5752 25.7278 47.5752 26.6782V47.9998H5.51758Z" fill="#666666"/>
<path d="M51.3417 21.7152C50.968 21.7152 50.5943 21.5904 50.2895 21.3696L26.5417 4.2624L2.79397 21.3792C2.5088 21.5904 2.13513 21.7152 1.76146 21.7152C0.984614 21.7152 0.325773 21.2544 0.0897703 20.5344C-0.146232 19.824 0.0897703 19.0752 0.719111 18.624L26.5417 0L33.907 5.3088C34.0053 4.4544 34.7527 3.7824 35.6475 3.7824H41.1444C42.1081 3.7824 42.8948 4.5504 42.8948 5.4912V11.7792L52.3644 18.6144C52.9839 19.056 53.2297 19.8048 52.9937 20.5152C52.7577 21.2352 52.0989 21.696 51.3318 21.696L51.3417 21.7152Z" fill="#009865"/>
<path d="M31.9699 16.8292V23.5972C31.9699 24.6532 31.0947 25.5076 30.013 25.5076H23.0706C21.9889 25.5076 21.1138 24.6532 21.1138 23.5972V16.8292C21.1138 15.7732 21.9889 14.9092 23.0706 14.9092H30.013C31.0947 14.9092 31.9699 15.7732 31.9699 16.8292Z" fill="#666666"/>
</svg>
