<svg width="35" height="32" viewBox="0 0 35 32" fill="none" xmlns="http://www.w3.org/2000/svg">
<path d="M18.9592 0.867418L23.1072 8.90512C23.3456 9.36338 23.8035 9.68344 24.3323 9.75617L33.604 11.0437C34.9407 11.2291 35.4732 12.8003 34.5051 13.7023L27.7952 19.9615C27.4117 20.3179 27.2367 20.8344 27.326 21.3399L28.9086 30.1741C29.1357 31.4471 27.7394 32.4181 26.5441 31.818L18.2517 27.6464C17.7788 27.4064 17.2091 27.4064 16.7362 27.6464L8.44384 31.818C7.24858 32.4181 5.85224 31.4471 6.07938 30.1741L7.66189 21.3399C7.75126 20.8344 7.57625 20.3179 7.19272 19.9615L0.494031 13.7059C-0.474096 12.804 0.062097 11.2328 1.39513 11.0473L10.6668 9.75981C11.1956 9.68707 11.6573 9.36702 11.8919 8.90876L16.0399 0.867418C16.6357 -0.289139 18.3634 -0.289139 18.9592 0.867418Z" fill="#009966"/>
</svg>
