<svg width="54" height="48" viewBox="0 0 54 48" fill="none" xmlns="http://www.w3.org/2000/svg">
<path d="M7.28809 47.9999C6.31458 47.9999 5.51807 47.2223 5.51807 46.2719C5.51807 45.3215 6.31458 44.5439 7.28809 44.5439H45.8057C46.7792 44.5439 47.5757 45.3215 47.5757 46.2719C47.5757 47.2223 46.7792 47.9999 45.8057 47.9999H7.28809Z" fill="#666666"/>
<path d="M51.3515 21.7152C50.9778 21.7152 50.6042 21.5904 50.2993 21.3696L26.5516 4.2624L2.79397 21.3792C2.5088 21.5904 2.13512 21.7152 1.76145 21.7152C0.984611 21.7152 0.325773 21.2544 0.0897704 20.5344C-0.146232 19.824 0.0897698 19.0752 0.71911 18.624L26.5516 0L33.9168 5.3088C34.0152 4.4544 34.7625 3.7824 35.6573 3.7824H41.1542C42.1179 3.7824 42.9046 4.5504 42.9046 5.4912V11.7792L52.3742 18.6144C52.9937 19.056 53.2395 19.8048 53.0035 20.5152C52.7675 21.2352 52.1087 21.696 51.3417 21.696L51.3515 21.7152Z" fill="#666666"/>
<path d="M26.5415 43.297C25.568 43.297 24.7715 42.5194 24.7715 41.569V22.6186C24.7715 21.6682 25.568 20.8906 26.5415 20.8906C27.515 20.8906 28.3115 21.6682 28.3115 22.6186V41.569C28.3115 42.5194 27.515 43.297 26.5415 43.297Z" fill="#009865"/>
<path d="M45.8052 43.297C44.8317 43.297 44.0352 42.5194 44.0352 41.569V22.6186C44.0352 21.6682 44.8317 20.8906 45.8052 20.8906C46.7787 20.8906 47.5752 21.6682 47.5752 22.6186V41.569C47.5752 42.5194 46.7787 43.297 45.8052 43.297Z" fill="#009865"/>
<path d="M7.29737 43.297C6.32386 43.297 5.52734 42.5194 5.52734 41.569V22.6186C5.52734 21.6682 6.32386 20.8906 7.29737 20.8906C8.27088 20.8906 9.06739 21.6682 9.06739 22.6186V41.569C9.06739 42.5194 8.27088 43.297 7.29737 43.297Z" fill="#009865"/>
</svg>
